 <svg  version="1.0" xmlns="http://www.w3.org/2000/svg"  width="900.000000pt" height="354.000000pt" viewBox="0 0 900.000000 354.000000"  preserveAspectRatio="xMidYMid meet">  <g transform="translate(0.000000,354.000000) scale(0.100000,-0.100000)" fill="#ffffff" stroke="none"> <path d="M1570 3173 c-57 -22 -65 -76 -20 -133 l30 -38 0 -284 0 -285 26 -24 26 -24 496 3 c274 1 507 0 519 -3 12 -3 35 -27 53 -58 17 -28 35 -59 40 -67 6 -8 44 -73 85 -145 41 -71 79 -137 85 -145 5 -8 20 -35 33 -60 14 -25 34 -61 45 -80 12 -19 33 -57 47 -85 14 -27 35 -63 45 -80 11 -16 24 -40 30 -52 9 -21 16 -23 89 -23 44 0 87 3 95 6 9 4 28 29 42 58 14 28 41 78 59 111 19 33 45 83 60 110 14 28 41 77 60 110 19 33 37 67 42 75 4 8 21 40 39 70 17 30 46 80 62 110 56 101 57 98 60 -363 l2 -418 23 -8 c35 -12 250 -3 259 12 4 6 7 318 6 692 l-3 680 -135 3 c-74 1 -145 0 -157 -3 -11 -2 -26 -17 -32 -32 -6 -16 -33 -68 -60 -118 -27 -49 -61 -112 -76 -140 -14 -27 -41 -77 -60 -110 -18 -33 -45 -82 -60 -110 -14 -27 -34 -63 -44 -80 -18 -30 -94 -168 -118 -215 -7 -14 -22 -36 -33 -50 l-19 -25 -18 25 c-17 24 -41 67 -98 175 -14 28 -34 64 -44 80 -10 17 -37 66 -61 110 -24 44 -52 94 -61 110 -10 17 -25 44 -33 60 -8 17 -34 62 -56 100 -22 39 -48 84 -56 100 -18 35 -32 60 -58 98 l-18 27 -144 0 -144 0 -2 -207 -3 -208 -381 -3 c-371 -2 -381 -2 -399 18 -17 19 -18 42 -17 297 l1 276 26 27 c30 32 34 89 8 113 -21 18 -62 28 -83 20z m48 -45 c19 -19 14 -46 -8 -53 -22 -7 -50 9 -50 29 0 15 20 36 35 36 6 0 16 -5 23 -12z"/> <path d="M1430 2848 c-132 -21 -228 -67 -305 -146 -117 -119 -137 -328 -45 -469 18 -27 47 -60 66 -72 19 -13 34 -27 34 -32 0 -5 -97 -9 -216 -9 l-216 0 -35 30 c-41 37 -72 38 -103 5 -32 -34 -33 -91 -1 -116 31 -26 68 -24 110 5 36 25 37 25 316 27 182 1 294 -2 320 -9 91 -25 161 -47 235 -72 19 -7 51 -16 70 -20 98 -23 180 -71 192 -115 24 -86 -22 -159 -122 -192 l-55 -18 -3 -118 c-3 -139 -5 -138 101 -111 144 36 236 93 305 188 58 79 74 137 69 248 -4 104 -19 153 -63 201 -82 91 -154 124 -444 203 -30 9 -68 20 -85 26 -16 5 -43 13 -60 18 -56 14 -138 64 -156 95 -38 62 -13 146 53 180 18 9 56 20 83 23 l50 7 3 108 c3 106 -6 148 -31 146 -7 -1 -37 -6 -67 -11z m-748 -730 c12 -10 14 -19 7 -35 -11 -29 -45 -30 -60 -1 -10 18 -8 24 7 35 22 16 26 16 46 1z"/> <path d="M1674 2847 c-2 -7 -3 -65 -2 -128 l3 -114 50 -7 c56 -7 152 -31 181 -45 11 -5 34 -17 52 -26 44 -22 72 -22 72 1 0 10 6 26 14 37 7 11 16 31 19 45 3 14 13 45 22 69 9 24 14 49 12 55 -7 15 -99 59 -182 86 -45 15 -178 40 -213 40 -12 0 -25 -6 -28 -13z"/> <path d="M4830 2821 c-14 -27 -13 -68 3 -99 8 -15 21 -43 29 -62 15 -33 32 -71 108 -235 17 -36 44 -94 60 -130 76 -165 93 -202 108 -235 8 -19 19 -43 24 -54 16 -31 -7 -36 -160 -36 -127 0 -143 -2 -148 -17 -6 -21 -30 -77 -50 -116 -8 -16 -14 -34 -14 -42 0 -7 -7 -18 -15 -25 -37 -31 -9 -35 251 -40 l259 -5 37 -75 c20 -41 48 -101 62 -132 14 -31 31 -60 38 -64 16 -10 279 -7 290 4 4 4 -5 35 -21 67 -16 33 -41 87 -56 120 -67 149 -69 155 -155 340 -18 39 -38 84 -45 100 -8 17 -27 60 -44 98 -17 37 -45 97 -62 135 -17 37 -36 81 -44 97 -21 48 -76 168 -85 186 -5 9 -27 61 -50 115 -23 54 -47 105 -52 112 -7 8 -47 12 -134 12 -112 0 -124 -2 -134 -19z"/> <path d="M5887 2833 c-13 -12 -8 -230 6 -240 7 -6 149 -13 347 -16 314 -5 338 -7 382 -27 109 -48 152 -140 127 -267 -12 -58 -18 -69 -61 -108 -70 -63 -128 -78 -313 -81 -82 -1 -158 2 -170 6 -19 7 -20 18 -25 176 l-5 169 -139 3 c-105 2 -141 -1 -148 -10 -4 -7 -7 -228 -6 -490 1 -367 4 -480 13 -488 8 -7 65 -9 146 -8 l134 3 5 195 5 195 151 3 151 3 19 -28 c10 -16 23 -36 29 -45 20 -33 151 -224 189 -275 l38 -53 154 0 c146 0 154 1 154 19 0 11 -5 23 -11 26 -5 4 -14 17 -20 28 -5 12 -36 60 -69 107 -34 47 -79 111 -100 143 -22 32 -51 73 -65 91 l-26 34 27 21 c15 12 31 21 35 21 30 0 130 108 163 176 101 206 59 456 -100 591 -66 57 -134 87 -259 117 -58 13 -130 16 -411 16 -187 0 -344 -3 -347 -7z"/> <path d="M7138 2833 c-2 -5 -2 -62 1 -128 l6 -120 245 -5 245 -5 5 -560 5 -560 130 -7 c72 -3 138 -4 147 -1 17 4 18 42 20 561 l3 557 220 5 220 5 3 133 3 132 -625 0 c-344 0 -626 -3 -628 -7z"/> <path d="M4686 2557 c-10 -23 -45 -98 -78 -167 -91 -189 -179 -377 -297 -632 -16 -35 -52 -111 -80 -169 -48 -101 -60 -139 -43 -139 4 0 63 -2 132 -4 96 -3 130 -1 148 10 12 8 22 20 22 26 0 6 9 30 19 52 19 41 61 135 85 191 17 40 37 85 76 170 17 39 38 84 45 100 7 17 22 50 33 75 11 25 32 72 46 105 15 33 33 73 41 88 8 16 15 41 15 55 0 31 -120 281 -135 281 -5 0 -18 -19 -29 -42z"/> <path d="M2420 1876 c0 -234 3 -426 8 -428 4 -2 66 -1 137 2 l130 5 3 330 2 330 -37 75 c-56 113 -52 110 -155 110 l-88 0 0 -424z"/> <path d="M380 1975 c-46 -25 -45 -103 1 -136 33 -23 51 -20 93 16 l29 25 523 0 523 0 15 -22 c14 -19 16 -67 16 -321 l0 -299 -30 -35 c-35 -40 -38 -70 -9 -107 28 -35 100 -38 123 -4 24 34 19 73 -13 111 l-30 33 -3 316 c-3 356 -1 347 -81 366 -26 7 -227 11 -530 11 -268 0 -496 3 -507 6 -11 4 -20 10 -20 15 0 10 -52 40 -67 40 -4 -1 -19 -7 -33 -15z m65 -55 c9 -27 -1 -40 -30 -40 -29 0 -39 13 -30 40 4 13 15 20 30 20 15 0 26 -7 30 -20z m1179 -756 c19 -19 20 -26 4 -42 -29 -29 -76 6 -54 40 13 22 30 23 50 2z"/> <path d="M1062 1768 c-10 -24 -27 -63 -37 -88 -9 -25 -21 -53 -26 -62 -19 -37 -10 -54 44 -82 129 -67 148 -76 162 -76 8 0 29 -6 47 -14 45 -19 206 -49 243 -44 l30 3 3 109 c2 65 -1 113 -8 121 -6 7 -27 15 -48 19 -146 24 -247 64 -354 138 -14 10 -28 18 -31 18 -3 0 -14 -19 -25 -42z"/> <path d="M2350 1171 c-95 -36 -171 -96 -206 -164 -20 -41 -44 -130 -44 -167 0 -97 55 -211 131 -271 74 -59 108 -69 223 -69 96 0 107 2 162 31 32 18 69 42 81 54 l23 22 -25 27 c-13 14 -28 26 -34 26 -5 0 -33 -16 -62 -35 -55 -36 -79 -41 -179 -36 -70 3 -138 46 -182 114 -29 45 -31 55 -31 136 0 84 1 90 37 144 30 44 49 62 94 83 105 50 190 43 279 -24 26 -19 36 -21 52 -12 18 9 41 40 41 54 0 12 -99 72 -145 88 -61 22 -155 22 -215 -1z"/> <path d="M3194 1171 c-102 -40 -172 -107 -216 -205 -28 -61 -25 -198 6 -268 31 -69 96 -137 164 -171 48 -24 65 -27 158 -27 91 0 110 3 159 27 68 32 135 96 167 160 20 41 23 63 23 153 0 94 -3 110 -27 155 -30 57 -87 119 -132 143 -100 53 -220 66 -302 33z m210 -92 c61 -27 109 -70 136 -122 17 -33 22 -59 22 -123 0 -76 -3 -86 -32 -131 -18 -27 -55 -65 -82 -83 -47 -33 -54 -34 -136 -34 -77 1 -92 4 -131 28 -89 56 -131 129 -131 226 0 184 190 312 354 239z"/> <path d="M3992 1181 c-9 -6 -12 -83 -10 -342 l3 -334 43 -3 42 -3 0 250 c0 194 3 251 13 251 6 -1 54 -56 105 -123 133 -175 190 -249 215 -277 13 -14 36 -42 52 -63 26 -35 32 -38 69 -35 l41 3 3 333 2 332 -27 11 c-19 7 -35 7 -51 -1 l-24 -10 4 -240 c3 -212 2 -240 -12 -240 -8 0 -52 48 -98 108 -93 121 -175 227 -200 257 -15 18 -92 114 -98 124 -6 8 -60 10 -72 2z"/> <path d="M4858 1179 c-5 -3 -8 -21 -6 -40 l3 -34 115 -5 115 -5 3 -298 2 -298 43 3 42 3 5 295 5 295 112 3 c87 2 112 6 117 17 7 20 -10 65 -26 67 -35 5 -521 2 -530 -3z"/> <path d="M5710 1181 c-13 -9 -15 -58 -18 -323 -1 -172 0 -323 3 -336 5 -20 11 -23 48 -20 l42 3 5 100 5 100 101 3 101 3 42 -55 c22 -30 41 -58 41 -61 0 -3 15 -26 33 -50 29 -40 36 -44 74 -45 51 0 61 14 36 48 -55 75 -113 165 -113 175 0 7 13 20 29 30 79 46 121 156 98 255 -17 71 -76 134 -150 157 -62 20 -352 32 -377 16z m347 -98 c73 -34 87 -54 87 -133 0 -63 -3 -73 -28 -99 -44 -46 -70 -52 -201 -49 l-120 3 -3 139 c-2 105 1 141 10 148 7 4 59 8 114 8 76 0 112 -4 141 -17z"/> <path d="M6770 1168 c-100 -36 -178 -110 -219 -208 -20 -47 -20 -203 0 -251 32 -78 96 -145 177 -184 46 -22 66 -25 156 -25 118 0 162 14 234 76 60 51 93 106 113 191 16 67 16 77 1 140 -9 38 -26 85 -39 106 -31 50 -92 117 -107 117 -7 0 -17 5 -23 11 -24 24 -118 49 -178 48 -33 0 -85 -10 -115 -21z m207 -86 c56 -23 109 -69 135 -117 29 -53 33 -212 5 -243 -9 -10 -17 -23 -17 -28 0 -14 -58 -65 -100 -89 -47 -27 -199 -28 -228 -2 -10 9 -24 17 -30 17 -36 0 -122 154 -122 220 0 52 38 134 83 180 74 75 182 99 274 62z"/> <path d="M7567 1178 c-16 -12 -17 -42 -15 -343 l3 -330 225 0 225 0 0 40 0 40 -175 5 -175 5 -3 284 c-1 189 -6 289 -13 298 -14 16 -50 17 -72 1z"/> </g> </svg> 