 <svg  version="1.0" xmlns="http://www.w3.org/2000/svg"  width="900.000000pt" height="300.000000pt" viewBox="0 0 900.000000 300.000000"  preserveAspectRatio="xMidYMid meet">  <g transform="translate(0.000000,300.000000) scale(0.100000,-0.100000)" fill="#ffffff" stroke="none"> <path d="M1358 2935 c-27 -36 -23 -77 12 -111 l29 -29 1 -303 c0 -262 2 -307 16 -335 34 -65 4 -62 628 -67 l569 -5 19 -30 c10 -16 22 -39 28 -50 6 -11 19 -33 30 -50 11 -16 24 -39 30 -50 6 -11 19 -33 30 -50 11 -16 23 -37 27 -45 7 -14 113 -199 133 -230 5 -8 20 -35 33 -60 14 -25 34 -61 45 -80 12 -19 33 -57 47 -85 14 -27 37 -68 50 -90 l23 -40 104 -3 104 -3 38 73 c21 40 53 100 72 133 19 33 46 83 60 110 14 28 34 66 46 85 11 19 31 55 45 80 13 25 34 61 45 80 11 19 31 55 45 80 57 105 82 145 92 148 8 3 11 -128 11 -456 0 -253 3 -467 6 -476 5 -14 28 -16 148 -16 77 0 147 4 154 8 10 7 12 167 10 768 l-3 759 -167 3 -166 2 -26 -52 c-14 -29 -48 -93 -76 -143 -27 -49 -61 -112 -75 -140 -15 -27 -41 -77 -60 -110 -18 -33 -45 -82 -59 -110 -15 -27 -36 -66 -48 -85 -11 -19 -32 -57 -47 -83 -14 -26 -40 -74 -58 -105 -17 -31 -42 -76 -54 -100 -13 -24 -27 -45 -31 -48 -4 -2 -23 24 -43 58 -19 35 -40 70 -45 78 -5 8 -21 38 -35 65 -15 28 -41 77 -60 110 -18 33 -45 83 -59 110 -15 28 -35 64 -46 80 -10 17 -31 53 -45 80 -14 28 -35 66 -47 85 -11 19 -31 55 -45 80 -13 25 -28 52 -33 60 -6 8 -29 49 -53 90 l-44 75 -164 0 -164 0 -5 -230 -5 -230 -416 -3 c-412 -2 -416 -2 -435 19 -18 20 -19 39 -18 331 l1 309 32 32 c62 65 28 137 -65 137 -40 -1 -52 -5 -66 -25z m100 -53 c-4 -33 -36 -42 -55 -16 -17 23 -16 29 3 48 23 24 56 3 52 -32z"/> <path d="M1299 2615 c-3 -2 -36 -8 -74 -13 -190 -26 -333 -127 -405 -287 -19 -42 -22 -67 -22 -165 0 -145 16 -186 112 -282 38 -38 63 -68 56 -69 -6 0 -117 0 -246 1 l-235 1 -20 24 c-47 57 -124 51 -150 -12 -41 -97 77 -163 155 -88 l27 26 324 -4 c303 -3 364 -8 429 -34 14 -6 52 -18 85 -28 279 -81 326 -101 363 -155 26 -38 28 -73 8 -122 -22 -52 -57 -80 -133 -108 l-68 -26 0 -123 c0 -153 0 -153 112 -127 183 43 311 132 380 263 41 79 58 190 43 275 -34 190 -137 272 -453 361 -228 65 -266 77 -307 94 -129 57 -150 80 -150 164 0 50 4 63 28 88 31 33 98 61 146 61 53 0 58 14 54 150 -2 94 -6 123 -18 130 -16 10 -34 13 -41 5z m-869 -840 c0 -20 -27 -37 -49 -30 -30 9 -35 37 -10 58 20 16 23 16 40 1 11 -10 19 -23 19 -29z"/> <path d="M1514 2607 c-2 -7 -3 -71 -2 -143 l3 -129 62 -7 c34 -4 71 -11 82 -17 11 -6 29 -11 40 -11 21 0 68 -18 132 -51 50 -26 68 -24 80 9 71 176 82 212 69 227 -31 38 -214 102 -351 124 -86 14 -109 14 -115 -2z"/> <path d="M5004 2583 c-3 -10 -10 -28 -16 -39 -6 -14 -6 -28 0 -40 5 -11 16 -35 24 -54 21 -46 68 -148 167 -362 16 -35 41 -90 56 -123 15 -33 43 -94 62 -135 76 -164 78 -171 61 -182 -7 -4 -82 -8 -165 -8 l-153 0 -29 -62 c-42 -91 -81 -186 -81 -198 0 -6 101 -11 287 -12 l287 -3 32 -65 c68 -139 94 -196 94 -207 0 -7 9 -17 19 -23 23 -12 327 -14 335 -2 3 5 -3 26 -14 48 -18 37 -69 149 -112 244 -11 25 -33 72 -48 105 -54 117 -88 191 -118 255 -16 36 -39 85 -50 110 -11 25 -35 77 -52 115 -18 39 -43 95 -57 125 -14 30 -38 82 -53 115 -30 63 -69 150 -102 225 -39 91 -51 116 -69 150 l-18 35 -141 3 c-127 2 -141 1 -146 -15z"/> <path d="M6169 2588 c-2 -52 3 -273 6 -276 2 -3 174 -7 381 -10 370 -5 379 -5 432 -29 95 -42 142 -117 142 -225 0 -114 -56 -194 -170 -243 -39 -18 -68 -20 -250 -20 l-205 0 -5 195 -5 195 -160 0 -160 0 0 -555 0 -555 160 0 160 0 5 220 5 220 154 3 c132 2 156 0 172 -14 19 -17 68 -87 182 -259 33 -49 76 -109 94 -132 l34 -43 170 0 c147 0 170 2 176 16 4 10 0 20 -10 26 -10 5 -17 14 -17 20 0 5 -12 27 -27 47 -16 20 -32 44 -38 53 -5 9 -34 52 -64 95 -30 43 -68 98 -85 123 -16 25 -42 61 -58 81 -15 20 -28 39 -28 42 0 3 20 15 43 27 108 54 190 154 238 290 28 79 27 273 -1 353 -30 86 -72 151 -135 210 -37 35 -132 92 -165 99 -14 3 -38 11 -55 16 -105 37 -178 42 -547 42 -287 0 -368 -3 -369 -12z"/> <path d="M7557 2593 c-10 -9 -9 -271 1 -277 5 -3 127 -8 273 -11 145 -3 267 -9 271 -13 4 -4 9 -282 10 -617 l3 -610 159 -3 c121 -2 161 1 168 10 4 7 8 286 8 620 l0 608 238 2 237 3 5 138 c3 75 4 142 2 147 -4 11 -1364 14 -1375 3z"/> <path d="M4853 2313 c-3 -10 -39 -88 -80 -173 -83 -171 -150 -312 -194 -407 -92 -200 -86 -187 -199 -428 -23 -49 -55 -117 -71 -150 -48 -100 -54 -96 133 -93 l162 3 34 70 c19 39 40 85 48 102 43 100 87 198 133 295 17 37 31 70 31 73 0 3 14 35 31 72 37 81 74 161 100 223 11 25 27 58 34 73 8 16 15 39 15 51 0 21 -117 263 -141 293 -16 18 -28 16 -36 -4z"/> <path d="M2335 1998 c-3 -7 -4 -220 -3 -473 l3 -460 149 -3 c101 -2 153 1 162 9 11 9 14 75 13 363 0 341 -1 352 -22 393 -12 23 -33 63 -46 90 -44 89 -52 93 -158 93 -66 0 -95 -4 -98 -12z"/> <path d="M78 1644 c-25 -13 -28 -20 -28 -67 0 -58 5 -69 39 -86 33 -18 86 -5 109 26 l19 26 571 1 571 1 22 -22 c22 -21 22 -26 23 -363 0 -293 -2 -344 -15 -354 -25 -18 -49 -59 -49 -81 1 -11 12 -33 25 -50 21 -25 32 -30 69 -30 60 0 86 24 86 81 0 37 -5 47 -30 66 l-30 22 0 338 c0 361 -1 369 -50 413 -21 19 -38 20 -606 23 l-584 3 -15 23 c-16 25 -55 46 -83 46 -9 -1 -29 -8 -44 -16z m76 -56 c15 -21 14 -24 -4 -43 -16 -15 -24 -17 -38 -9 -22 14 -27 41 -12 59 18 21 36 18 54 -7z m1308 -843 c14 -30 -5 -57 -36 -53 -39 6 -29 78 10 78 8 0 19 -11 26 -25z"/> <path d="M847 1442 c-10 -10 -17 -24 -17 -30 0 -11 -22 -66 -41 -104 -27 -53 -38 -103 -26 -115 83 -79 420 -191 547 -181 l45 3 0 130 0 129 -60 13 c-109 23 -140 31 -185 48 -61 22 -135 60 -187 95 -52 35 -55 36 -76 12z"/> <path d="M3250 770 c-100 -12 -180 -62 -248 -155 -57 -77 -66 -107 -66 -225 0 -69 5 -117 14 -140 24 -56 88 -138 134 -168 83 -55 108 -62 237 -62 114 0 123 2 182 31 64 31 128 86 152 129 49 89 50 93 50 210 0 107 -2 119 -29 171 -59 117 -182 202 -306 211 -36 3 -90 2 -120 -2z m159 -109 c65 -23 132 -77 158 -128 105 -201 -24 -423 -245 -423 -107 0 -177 37 -239 127 l-38 55 0 102 c1 92 3 105 27 142 53 83 153 141 243 143 23 1 65 -7 94 -18z"/> <path d="M2250 755 c-14 -8 -30 -14 -37 -15 -22 0 -101 -60 -138 -103 -65 -76 -78 -117 -79 -247 0 -140 17 -185 103 -271 84 -84 127 -99 276 -99 112 0 128 2 174 25 65 33 111 72 111 94 0 21 -40 61 -62 61 -8 0 -23 -9 -33 -20 -62 -68 -204 -91 -300 -49 -75 33 -128 93 -154 174 -26 84 -26 87 0 170 28 91 88 153 179 183 104 36 179 24 261 -40 20 -15 43 -28 50 -28 18 0 59 44 59 62 0 17 -80 77 -130 97 -51 21 -247 25 -280 6z"/> <path d="M4065 757 c-3 -6 -4 -174 -3 -372 l3 -360 48 -3 c33 -2 47 1 47 10 0 7 1 127 3 267 1 184 5 255 14 258 6 2 46 -40 87 -94 122 -157 176 -227 194 -248 10 -11 48 -59 85 -107 68 -87 69 -88 112 -88 24 0 47 4 50 10 3 5 6 169 6 365 0 196 -3 360 -6 365 -3 6 -26 10 -51 10 l-44 0 0 -274 c0 -151 -4 -277 -9 -280 -4 -3 -22 15 -40 39 -17 24 -37 50 -44 57 -7 7 -58 71 -113 141 -258 333 -243 317 -294 317 -23 0 -43 -5 -45 -13z"/> <path d="M5030 725 l0 -45 113 0 c61 0 118 -4 124 -8 10 -6 13 -87 15 -328 l3 -319 50 0 50 0 5 325 5 325 123 3 c67 1 123 6 123 10 6 35 5 59 -3 70 -8 9 -82 12 -309 12 l-299 0 0 -45z"/> <path d="M5960 394 l0 -375 53 3 52 3 3 104 c1 58 8 111 14 118 7 9 39 13 104 13 l93 0 35 -44 c20 -23 36 -46 36 -51 0 -4 14 -24 30 -45 17 -21 30 -42 30 -47 0 -5 10 -19 23 -31 18 -17 36 -22 75 -22 62 0 67 13 24 69 -60 77 -124 180 -117 190 3 6 14 11 24 11 21 0 83 63 106 108 11 23 16 59 16 117 1 78 -2 87 -32 133 -34 52 -65 76 -139 104 -37 15 -78 18 -237 18 l-193 0 0 -376z m385 268 c60 -25 83 -45 100 -85 19 -46 19 -85 0 -128 -20 -46 -34 -61 -75 -82 -30 -15 -55 -18 -165 -15 l-130 3 -3 150 c-1 82 0 155 2 162 8 21 220 17 271 -5z"/> <path d="M7102 739 c-75 -37 -147 -105 -187 -179 -28 -52 -29 -62 -29 -170 0 -106 2 -119 27 -168 40 -77 98 -135 170 -171 60 -30 67 -31 189 -31 116 0 131 2 178 26 172 86 257 279 202 457 -10 31 -24 63 -30 69 -7 7 -12 17 -12 24 0 23 -102 112 -164 142 -62 30 -72 32 -173 31 -99 0 -113 -3 -171 -30z m258 -78 c70 -25 144 -89 170 -148 29 -66 28 -187 -2 -245 -53 -102 -144 -158 -255 -158 -104 0 -194 48 -245 130 -29 47 -48 151 -37 195 6 22 13 49 15 60 10 36 59 99 99 126 93 61 164 72 255 40z"/> <path d="M8015 757 c-3 -6 -4 -174 -3 -372 l3 -360 250 0 250 0 3 34 c2 18 -1 38 -7 44 -7 7 -78 11 -199 12 l-187 0 -3 328 -2 327 -50 0 c-31 0 -52 -5 -55 -13z"/> </g> </svg> 