 <svg  version="1.0" xmlns="http://www.w3.org/2000/svg"  width="4722.000000pt" height="1854.000000pt" viewBox="0 0 4722.000000 1854.000000"  preserveAspectRatio="xMidYMid meet">  <g transform="translate(0.000000,1854.000000) scale(0.100000,-0.100000)" fill="#ffffff" stroke="none"> <path d="M2350 17992 c-79 -39 -86 -136 -15 -201 l35 -31 1 -418 c0 -293 4 -426 12 -449 14 -38 50 -68 97 -80 20 -5 346 -7 774 -3 l739 5 22 -30 c12 -16 25 -37 29 -45 3 -8 15 -28 26 -45 11 -16 24 -39 30 -50 6 -11 19 -33 30 -50 11 -16 24 -39 30 -50 6 -11 19 -33 30 -50 11 -16 24 -39 30 -50 6 -11 19 -33 30 -50 11 -16 24 -41 30 -54 6 -13 19 -35 29 -50 10 -14 31 -48 45 -76 15 -27 37 -66 48 -85 11 -19 31 -55 45 -80 13 -25 33 -58 43 -75 10 -16 31 -52 45 -80 14 -27 42 -77 60 -110 19 -33 38 -67 42 -75 3 -8 17 -32 30 -52 l23 -38 135 0 134 0 15 28 c8 15 28 54 45 87 17 33 51 96 76 140 24 44 56 103 70 130 15 28 42 77 60 110 19 33 46 83 60 110 14 28 35 64 45 80 10 17 31 53 45 80 14 28 34 64 45 80 11 17 24 39 30 50 6 11 21 38 33 60 13 22 32 56 43 76 20 37 48 69 59 69 3 0 5 -293 4 -651 0 -534 2 -653 13 -660 22 -14 371 -11 391 4 16 11 17 83 15 1047 l-3 1035 -205 3 c-113 1 -215 0 -226 -3 -15 -3 -35 -31 -64 -87 -23 -46 -57 -110 -75 -143 -18 -33 -46 -85 -62 -115 -74 -140 -118 -220 -149 -275 -18 -33 -45 -82 -59 -110 -14 -27 -35 -66 -47 -85 -11 -19 -32 -57 -47 -83 -14 -27 -40 -74 -58 -105 -17 -31 -43 -79 -57 -107 -15 -27 -35 -63 -46 -80 -10 -16 -31 -54 -45 -83 -40 -81 -44 -78 -150 123 -15 28 -42 77 -61 110 -19 33 -46 83 -60 110 -14 28 -40 76 -57 107 -18 31 -44 78 -58 105 -15 26 -36 64 -47 83 -12 19 -33 58 -47 85 -14 28 -39 73 -56 100 -16 28 -36 64 -44 80 -9 17 -24 44 -35 60 -10 17 -31 53 -45 80 -14 28 -32 59 -38 70 -7 11 -28 47 -46 80 -19 33 -42 65 -50 72 -12 9 -77 12 -227 13 -184 0 -213 -2 -218 -16 -3 -9 -6 -153 -6 -320 l0 -304 -487 -2 c-678 -3 -670 -3 -692 51 -8 19 -11 152 -9 438 l3 412 40 35 c37 33 39 39 39 90 0 62 -17 90 -71 112 -42 18 -51 18 -93 -4z m81 -62 c22 -12 26 -59 7 -78 -19 -19 -66 -15 -78 7 -29 56 15 100 71 71z"/> <path d="M2521 17522 c-7 -2 -11 -67 -11 -192 0 -215 -11 -195 105 -205 107 -10 201 -39 333 -102 78 -38 96 -38 105 -1 3 13 15 48 27 78 12 30 25 69 29 85 4 17 12 39 18 50 23 44 35 96 25 108 -17 19 -154 83 -252 117 -90 30 -347 73 -379 62z"/> <path d="M2160 17510 c-64 -7 -133 -24 -219 -55 -144 -52 -287 -175 -342 -295 -53 -113 -54 -119 -54 -270 0 -151 2 -160 54 -269 17 -36 128 -157 170 -184 13 -8 21 -20 17 -25 -3 -5 -141 -9 -337 -8 -272 1 -333 3 -337 15 -2 7 -17 27 -31 44 -24 27 -34 30 -84 30 -49 0 -61 -4 -84 -28 -24 -23 -28 -35 -28 -84 0 -64 18 -90 77 -111 47 -17 85 -6 124 36 l33 34 450 0 c360 0 457 -3 483 -14 18 -7 60 -21 93 -31 33 -9 78 -23 100 -30 22 -6 67 -20 100 -30 136 -40 161 -48 193 -61 18 -8 40 -14 48 -14 9 0 28 -6 42 -14 15 -7 43 -21 62 -31 52 -27 71 -46 91 -93 23 -53 24 -75 3 -134 -17 -51 -59 -103 -101 -125 -48 -25 -127 -53 -151 -53 l-22 0 2 -182 3 -183 65 3 c136 7 312 75 430 167 30 24 62 51 70 62 40 49 90 124 90 136 0 7 4 17 9 23 5 5 19 37 30 71 17 50 21 87 21 186 0 126 -11 176 -56 267 -20 40 -148 170 -167 170 -7 0 -18 5 -24 11 -14 14 -161 79 -179 79 -7 0 -28 6 -46 14 -18 7 -59 21 -91 30 -316 88 -372 104 -415 122 -18 8 -37 14 -43 14 -24 0 -137 64 -170 96 -66 64 -73 166 -18 245 29 42 106 77 186 84 40 4 77 13 83 20 7 8 9 78 8 191 l-3 179 -35 1 c-19 1 -64 -2 -100 -6z m-1133 -1088 c12 -8 18 -31 15 -63 -3 -23 -42 -38 -69 -26 -28 13 -36 37 -24 71 8 19 17 26 38 26 16 0 34 -4 40 -8z"/> <path d="M7441 17500 c-161 -5 -175 -6 -184 -25 -6 -11 -14 -27 -19 -35 -4 -8 -11 -20 -14 -27 -3 -7 8 -42 25 -78 17 -36 31 -68 31 -72 0 -4 13 -35 29 -68 75 -157 121 -255 144 -305 14 -30 39 -86 57 -125 17 -38 41 -90 52 -115 11 -25 33 -73 49 -107 66 -143 92 -200 105 -230 8 -18 22 -48 31 -67 10 -20 14 -38 11 -42 -4 -3 -103 -6 -220 -6 -117 0 -220 -3 -228 -8 -9 -5 -29 -41 -45 -80 -16 -39 -32 -73 -37 -76 -4 -3 -8 -12 -8 -19 0 -8 -16 -49 -36 -91 -20 -43 -32 -80 -27 -85 5 -5 181 -10 392 -11 l383 -3 19 -35 c11 -19 33 -66 50 -105 17 -38 44 -97 59 -130 15 -33 36 -79 46 -102 15 -33 26 -44 49 -48 36 -7 423 0 431 8 3 3 -13 45 -36 94 -23 48 -48 102 -55 118 -7 17 -27 59 -43 95 -37 80 -90 195 -108 235 -7 17 -31 68 -52 115 -22 47 -49 108 -62 135 -12 28 -35 78 -51 113 -66 143 -92 199 -104 227 -7 17 -27 59 -44 95 -16 36 -42 92 -56 125 -40 90 -71 159 -145 320 -17 39 -41 90 -51 115 -20 46 -28 61 -72 160 -14 30 -32 72 -40 92 -8 20 -24 40 -34 45 -10 4 -96 6 -192 3z"/> <path d="M8839 17496 c-15 -16 -12 -371 4 -383 7 -5 202 -10 462 -11 487 -3 539 -5 600 -29 105 -40 161 -84 199 -154 27 -51 29 -61 29 -169 0 -99 -4 -122 -22 -159 -53 -103 -148 -170 -281 -197 -86 -18 -520 -20 -538 -2 -9 9 -12 80 -12 260 0 226 -2 248 -17 256 -21 10 -406 7 -423 -3 -16 -10 -13 -1471 4 -1488 9 -9 66 -11 224 -9 l212 3 2 297 3 297 225 3 225 2 76 -112 c238 -354 287 -426 309 -455 l24 -33 241 0 c133 0 244 3 248 6 3 4 -14 33 -38 65 -25 31 -45 62 -45 67 0 6 -3 12 -7 14 -11 5 -53 66 -53 77 0 5 -3 11 -7 13 -9 3 -23 24 -129 180 -42 62 -95 138 -118 168 -23 30 -45 61 -50 68 -10 16 10 41 49 59 147 69 254 199 324 393 7 19 19 82 26 140 13 110 2 260 -25 340 -25 73 -75 165 -121 220 -44 52 -148 140 -165 140 -4 0 -15 6 -23 13 -15 13 -55 30 -138 61 -71 26 -178 46 -303 56 -164 14 -958 18 -971 6z"/> <path d="M10728 17499 c-16 -9 -18 -29 -18 -189 0 -172 1 -179 22 -194 18 -13 76 -15 367 -16 190 0 349 -4 354 -9 4 -4 10 -381 13 -837 3 -456 9 -832 13 -836 11 -13 393 -21 423 -9 l28 10 2 838 3 838 270 2 c149 2 296 3 328 3 l57 0 0 200 c0 110 -1 200 -2 201 -2 0 -417 2 -923 5 -624 2 -926 0 -937 -7z"/> <path d="M6995 16983 c-42 -87 -81 -165 -86 -173 -5 -8 -12 -22 -15 -30 -3 -8 -26 -58 -51 -110 -44 -92 -73 -154 -135 -290 -71 -153 -91 -196 -99 -210 -5 -8 -12 -22 -15 -30 -11 -26 -55 -122 -91 -200 -19 -41 -48 -102 -63 -135 -64 -137 -100 -215 -139 -297 -23 -49 -39 -92 -36 -98 4 -6 87 -10 220 -10 l214 0 20 29 c12 16 21 33 21 37 0 5 14 38 31 74 17 36 37 81 46 100 8 19 21 49 28 65 7 17 22 50 33 75 11 25 32 72 47 105 38 87 49 112 85 190 17 39 38 85 46 103 8 17 20 47 28 65 8 17 29 64 46 102 17 39 38 85 46 103 8 17 21 49 30 70 10 20 21 44 26 52 4 8 11 22 14 30 3 8 12 28 20 43 21 42 27 99 12 124 -36 63 -178 351 -178 361 0 7 -6 12 -14 12 -8 0 -46 -67 -91 -157z"/> <path d="M3630 16680 c-7 -14 -10 -215 -10 -641 l2 -620 21 -8 c21 -8 407 -4 415 4 3 2 5 221 7 487 l2 483 -49 100 c-27 55 -58 114 -69 130 -10 17 -23 40 -28 51 -14 31 -29 34 -161 34 -109 0 -120 -2 -130 -20z"/> <path d="M569 16196 c-66 -45 -71 -141 -10 -193 19 -16 39 -22 75 -23 45 0 53 4 90 43 l40 42 735 3 c405 1 754 0 776 -3 22 -3 51 -14 65 -25 l25 -19 3 -471 3 -471 -36 -31 c-41 -37 -53 -83 -36 -136 15 -50 53 -76 111 -76 69 0 120 48 120 111 0 33 -31 92 -52 99 -45 14 -46 24 -47 507 -1 251 -5 467 -10 480 -12 31 -49 61 -99 80 -38 15 -120 17 -807 17 -752 0 -764 0 -775 20 -15 28 -80 70 -110 70 -14 0 -41 -11 -61 -24z m94 -60 c35 -27 11 -96 -33 -96 -20 0 -50 35 -50 59 0 20 30 51 49 51 9 0 24 -7 34 -14z m1790 -1168 c10 -36 -10 -68 -41 -68 -36 0 -52 17 -52 55 0 23 6 35 23 42 28 13 63 -2 70 -29z"/> <path d="M1614 15933 c-6 -18 -16 -43 -46 -113 -9 -19 -23 -55 -33 -80 -9 -25 -26 -65 -37 -89 l-20 -43 23 -24 c31 -30 115 -76 234 -128 150 -66 315 -105 460 -108 l100 -3 0 180 0 180 -65 6 c-36 3 -85 12 -110 18 -83 23 -170 51 -188 60 -9 5 -51 25 -92 45 -82 40 -95 48 -153 89 -46 31 -65 34 -73 10z"/> <path d="M3555 15000 c-58 -17 -100 -35 -156 -65 -67 -37 -174 -168 -208 -255 -37 -95 -37 -285 0 -380 61 -155 187 -266 354 -311 134 -36 257 -22 393 45 60 29 147 107 140 125 -2 4 -22 24 -45 45 l-43 38 -40 -35 c-21 -20 -63 -49 -92 -64 -49 -26 -61 -28 -173 -27 -142 0 -175 13 -267 104 -64 65 -85 106 -103 204 -28 154 41 324 160 393 83 48 110 55 215 57 120 1 161 -11 244 -76 27 -21 52 -38 56 -38 15 0 80 69 80 85 0 40 -135 126 -251 159 -73 21 -188 19 -264 -4z"/> <path d="M4825 15000 c-188 -56 -320 -193 -379 -391 -35 -121 -13 -249 69 -398 8 -14 41 -52 73 -85 98 -100 238 -156 388 -156 43 1 97 7 119 15 22 8 45 15 51 15 12 0 78 30 123 55 33 18 141 125 152 150 5 11 13 27 18 35 29 51 40 84 56 163 24 126 5 226 -72 372 -9 17 -44 57 -78 90 -65 63 -150 112 -246 139 -73 21 -198 19 -274 -4z m291 -146 c75 -35 160 -110 190 -169 29 -55 54 -147 54 -194 0 -54 -22 -135 -52 -192 -25 -49 -115 -131 -171 -158 -131 -61 -292 -42 -407 48 -76 61 -102 98 -132 191 -68 211 60 441 272 491 56 13 201 3 246 -17z"/> <path d="M10196 14999 c-39 -10 -74 -23 -80 -29 -5 -5 -16 -10 -22 -10 -21 0 -105 -60 -152 -108 -95 -97 -142 -217 -142 -367 1 -150 37 -240 139 -348 106 -111 237 -167 391 -167 48 0 107 7 139 16 222 65 356 213 391 431 26 160 -24 316 -142 444 -121 131 -338 188 -522 138z m279 -143 c14 -9 31 -16 40 -16 24 0 140 -121 162 -170 25 -56 43 -130 43 -175 0 -79 -42 -199 -88 -250 -102 -112 -231 -160 -364 -135 -145 28 -244 108 -297 239 -22 55 -26 233 -7 273 9 17 16 35 16 40 0 5 19 34 42 65 55 72 134 124 218 144 55 13 208 3 235 -15z"/> <path d="M5982 14997 c-14 -16 -14 -964 0 -990 7 -15 20 -17 66 -15 l57 3 3 373 c1 247 6 372 13 372 16 0 40 -28 139 -160 52 -69 99 -129 105 -135 7 -5 47 -57 90 -115 43 -58 84 -109 90 -115 6 -5 39 -47 73 -92 104 -137 100 -134 174 -131 l63 3 0 505 0 505 -70 0 -70 0 -2 -374 c-1 -219 -5 -377 -11 -383 -6 -6 -19 7 -35 34 -14 24 -36 55 -49 68 -21 22 -75 90 -178 226 -14 18 -54 69 -90 114 -36 45 -87 109 -113 143 -27 34 -56 71 -65 82 -10 11 -30 37 -46 58 -26 34 -32 37 -81 37 -30 0 -57 -5 -63 -13z"/> <path d="M7287 15003 c-9 -8 -9 -86 -1 -107 5 -14 30 -16 169 -16 127 0 165 -3 174 -14 9 -10 10 -117 7 -402 -2 -214 -1 -407 2 -429 7 -40 7 -40 57 -43 28 -1 56 2 63 7 11 7 14 90 15 434 1 234 6 429 10 434 5 4 81 10 170 13 l162 5 0 60 0 60 -411 3 c-226 1 -413 -1 -417 -5z"/> <path d="M8557 15003 c-4 -3 -7 -230 -7 -504 l0 -499 23 -5 c13 -4 43 -5 68 -3 l44 3 3 145 c1 79 6 148 10 152 4 3 74 8 155 9 l148 3 24 -29 c13 -17 24 -34 25 -39 0 -4 13 -25 29 -45 15 -20 30 -40 32 -46 2 -5 26 -43 52 -82 l49 -73 79 0 c47 0 79 4 79 10 0 6 -28 51 -62 101 -35 50 -70 101 -78 114 -8 13 -28 43 -45 66 l-30 42 23 16 c115 82 161 132 175 191 3 14 10 43 16 65 16 60 13 104 -10 170 -45 130 -129 199 -279 231 -68 15 -510 21 -523 7z m543 -147 c60 -32 89 -58 110 -98 26 -49 27 -141 3 -195 -34 -74 -79 -106 -173 -121 -91 -15 -319 -16 -336 -1 -11 9 -14 53 -14 209 0 109 3 206 6 215 6 15 25 17 188 13 152 -3 187 -7 216 -22z"/> <path d="M11336 14994 c-10 -26 -7 -978 4 -994 8 -13 55 -15 335 -13 180 2 331 5 336 8 5 4 9 33 9 65 l0 60 -267 2 -268 3 -3 443 -2 442 -69 0 c-54 0 -70 -4 -75 -16z"/> </g> </svg> 